<svg width="32" height="32" viewBox="0 0 32 32" fill="none" xmlns="http://www.w3.org/2000/svg">
<rect width="32" height="32" rx="8" fill="white"/>
<path d="M16 23.6459L14.7917 22.5626C13.3889 21.2987 12.2292 20.2084 11.3125 19.2917C10.3958 18.3751 9.66667 17.5522 9.125 16.823C8.58333 16.0938 8.20486 15.4237 7.98958 14.8126C7.77431 14.2015 7.66667 13.5765 7.66667 12.9376C7.66667 11.632 8.10417 10.5417 8.97917 9.66675C9.85417 8.79175 10.9444 8.35425 12.25 8.35425C12.9722 8.35425 13.6597 8.50703 14.3125 8.81258C14.9653 9.11814 15.5278 9.54869 16 10.1042C16.4722 9.54869 17.0347 9.11814 17.6875 8.81258C18.3403 8.50703 19.0278 8.35425 19.75 8.35425C21.0556 8.35425 22.1458 8.79175 23.0208 9.66675C23.8958 10.5417 24.3333 11.632 24.3333 12.9376C24.3333 13.5765 24.2257 14.2015 24.0104 14.8126C23.7951 15.4237 23.4167 16.0938 22.875 16.823C22.3333 17.5522 21.6042 18.3751 20.6875 19.2917C19.7708 20.2084 18.6111 21.2987 17.2083 22.5626L16 23.6459ZM16 21.3959C17.3333 20.2015 18.4306 19.1772 19.2917 18.323C20.1528 17.4688 20.8333 16.7258 21.3333 16.0938C21.8333 15.4619 22.1806 14.8994 22.375 14.4063C22.5694 13.9133 22.6667 13.4237 22.6667 12.9376C22.6667 12.1042 22.3889 11.4098 21.8333 10.8542C21.2778 10.2987 20.5833 10.0209 19.75 10.0209C19.0972 10.0209 18.4931 10.2049 17.9375 10.573C17.3819 10.9411 17 11.4098 16.7917 11.9792H15.2083C15 11.4098 14.6181 10.9411 14.0625 10.573C13.5069 10.2049 12.9028 10.0209 12.25 10.0209C11.4167 10.0209 10.7222 10.2987 10.1667 10.8542C9.61111 11.4098 9.33333 12.1042 9.33333 12.9376C9.33333 13.4237 9.43056 13.9133 9.625 14.4063C9.81945 14.8994 10.1667 15.4619 10.6667 16.0938C11.1667 16.7258 11.8472 17.4688 12.7083 18.323C13.5694 19.1772 14.6667 20.2015 16 21.3959Z" fill="#022C22"/>
</svg>
