<svg width="260" height="41" viewBox="0 0 260 41" fill="none" xmlns="http://www.w3.org/2000/svg">
<rect x="0.5" y="1.3999" width="39" height="39" rx="19.5" stroke="#D1FAE5" stroke-opacity="0.2"/>
<path d="M25 29.2333C24.3056 29.2333 23.7153 28.9903 23.2292 28.5042C22.7431 28.018 22.5 27.4278 22.5 26.7333C22.5 26.65 22.5208 26.4555 22.5625 26.15L16.7083 22.7333C16.4861 22.9417 16.2292 23.1048 15.9375 23.2229C15.6458 23.341 15.3333 23.4 15 23.4C14.3056 23.4 13.7153 23.1569 13.2292 22.6708C12.7431 22.1847 12.5 21.5944 12.5 20.9C12.5 20.2055 12.7431 19.6153 13.2292 19.1292C13.7153 18.643 14.3056 18.4 15 18.4C15.3333 18.4 15.6458 18.459 15.9375 18.5771C16.2292 18.6951 16.4861 18.8583 16.7083 19.0667L22.5625 15.65C22.5347 15.5528 22.5174 15.459 22.5104 15.3687C22.5035 15.2785 22.5 15.1778 22.5 15.0667C22.5 14.3722 22.7431 13.7819 23.2292 13.2958C23.7153 12.8097 24.3056 12.5667 25 12.5667C25.6944 12.5667 26.2847 12.8097 26.7708 13.2958C27.2569 13.7819 27.5 14.3722 27.5 15.0667C27.5 15.7611 27.2569 16.3514 26.7708 16.8375C26.2847 17.3236 25.6944 17.5667 25 17.5667C24.6667 17.5667 24.3542 17.5076 24.0625 17.3896C23.7708 17.2715 23.5139 17.1083 23.2917 16.9L17.4375 20.3167C17.4653 20.4139 17.4826 20.5076 17.4896 20.5979C17.4965 20.6882 17.5 20.7889 17.5 20.9C17.5 21.0111 17.4965 21.1118 17.4896 21.2021C17.4826 21.2923 17.4653 21.3861 17.4375 21.4833L23.2917 24.9C23.5139 24.6917 23.7708 24.5285 24.0625 24.4104C24.3542 24.2923 24.6667 24.2333 25 24.2333C25.6944 24.2333 26.2847 24.4764 26.7708 24.9625C27.2569 25.4486 27.5 26.0389 27.5 26.7333C27.5 27.4278 27.2569 28.018 26.7708 28.5042C26.2847 28.9903 25.6944 29.2333 25 29.2333ZM25 27.5667C25.2361 27.5667 25.434 27.4868 25.5938 27.3271C25.7535 27.1673 25.8333 26.9694 25.8333 26.7333C25.8333 26.4972 25.7535 26.2993 25.5938 26.1396C25.434 25.9798 25.2361 25.9 25 25.9C24.7639 25.9 24.566 25.9798 24.4062 26.1396C24.2465 26.2993 24.1667 26.4972 24.1667 26.7333C24.1667 26.9694 24.2465 27.1673 24.4062 27.3271C24.566 27.4868 24.7639 27.5667 25 27.5667ZM15 21.7333C15.2361 21.7333 15.434 21.6535 15.5938 21.4937C15.7535 21.334 15.8333 21.1361 15.8333 20.9C15.8333 20.6639 15.7535 20.466 15.5938 20.3062C15.434 20.1465 15.2361 20.0667 15 20.0667C14.7639 20.0667 14.566 20.1465 14.4062 20.3062C14.2465 20.466 14.1667 20.6639 14.1667 20.9C14.1667 21.1361 14.2465 21.334 14.4062 21.4937C14.566 21.6535 14.7639 21.7333 15 21.7333ZM25 15.9C25.2361 15.9 25.434 15.8201 25.5938 15.6604C25.7535 15.5007 25.8333 15.3028 25.8333 15.0667C25.8333 14.8305 25.7535 14.6326 25.5938 14.4729C25.434 14.3132 25.2361 14.2333 25 14.2333C24.7639 14.2333 24.566 14.3132 24.4062 14.4729C24.2465 14.6326 24.1667 14.8305 24.1667 15.0667C24.1667 15.3028 24.2465 15.5007 24.4062 15.6604C24.566 15.8201 24.7639 15.9 25 15.9Z" fill="white"/>
<rect x="56.5" y="1.3999" width="39" height="39" rx="19.5" stroke="#D1FAE5" stroke-opacity="0.2"/>
<path d="M76 29.2333C74.8472 29.2333 73.7639 29.0146 72.75 28.5771C71.7361 28.1396 70.8542 27.5458 70.1042 26.7958C69.3542 26.0458 68.7604 25.1639 68.3229 24.15C67.8854 23.1361 67.6667 22.0528 67.6667 20.9C67.6667 19.7472 67.8854 18.6639 68.3229 17.65C68.7604 16.6361 69.3542 15.7542 70.1042 15.0042C70.8542 14.2542 71.7361 13.6604 72.75 13.2229C73.7639 12.7854 74.8472 12.5667 76 12.5667C77.1528 12.5667 78.2361 12.7854 79.25 13.2229C80.2639 13.6604 81.1458 14.2542 81.8958 15.0042C82.6458 15.7542 83.2396 16.6361 83.6771 17.65C84.1146 18.6639 84.3333 19.7472 84.3333 20.9C84.3333 22.0528 84.1146 23.1361 83.6771 24.15C83.2396 25.1639 82.6458 26.0458 81.8958 26.7958C81.1458 27.5458 80.2639 28.1396 79.25 28.5771C78.2361 29.0146 77.1528 29.2333 76 29.2333ZM75.1667 27.525V25.9C74.7083 25.9 74.316 25.7368 73.9896 25.4104C73.6632 25.084 73.5 24.6917 73.5 24.2333V23.4L69.5 19.4C69.4583 19.65 69.4201 19.9 69.3854 20.15C69.3507 20.4 69.3333 20.65 69.3333 20.9C69.3333 22.5805 69.8854 24.0528 70.9896 25.3167C72.0937 26.5805 73.4861 27.3167 75.1667 27.525ZM80.9167 25.4C81.4861 24.775 81.9201 24.0771 82.2187 23.3062C82.5174 22.5354 82.6667 21.7333 82.6667 20.9C82.6667 19.5389 82.2882 18.2958 81.5312 17.1708C80.7743 16.0458 79.7639 15.2333 78.5 14.7333V15.0667C78.5 15.525 78.3368 15.9173 78.0104 16.2437C77.684 16.5701 77.2917 16.7333 76.8333 16.7333H75.1667V18.4C75.1667 18.6361 75.0868 18.834 74.9271 18.9937C74.7674 19.1535 74.5694 19.2333 74.3333 19.2333H72.6667V20.9H77.6667C77.9028 20.9 78.1007 20.9798 78.2604 21.1396C78.4201 21.2993 78.5 21.4972 78.5 21.7333V24.2333H79.3333C79.6944 24.2333 80.0208 24.341 80.3125 24.5562C80.6042 24.7715 80.8056 25.0528 80.9167 25.4Z" fill="white"/>
<rect x="112.5" y="1.3999" width="39" height="39" rx="19.5" stroke="#D1FAE5" stroke-opacity="0.2"/>
<path d="M125.333 27.5665C124.875 27.5665 124.483 27.4033 124.156 27.0769C123.83 26.7505 123.667 26.3582 123.667 25.8998V15.8998C123.667 15.4415 123.83 15.0491 124.156 14.7227C124.483 14.3963 124.875 14.2332 125.333 14.2332H138.667C139.125 14.2332 139.517 14.3963 139.844 14.7227C140.17 15.0491 140.333 15.4415 140.333 15.8998V25.8998C140.333 26.3582 140.17 26.7505 139.844 27.0769C139.517 27.4033 139.125 27.5665 138.667 27.5665H125.333ZM132 21.7332L125.333 17.5665V25.8998H138.667V17.5665L132 21.7332ZM132 20.0665L138.667 15.8998H125.333L132 20.0665ZM125.333 17.5665V15.8998V17.5665V25.8998V17.5665Z" fill="white"/>
</svg>
